<?xml version="1.0" standalone="no"?><!DOCTYPE svg PUBLIC "-//W3C//DTD SVG 1.1//EN" "http://www.w3.org/Graphics/SVG/1.1/DTD/svg11.dtd"><svg class="icon" width="32px" height="32.00px" viewBox="0 0 1024 1024" version="1.1" xmlns="http://www.w3.org/2000/svg"><path d="M512 116.492c-218.433 0-395.508 177.075-395.508 395.508S293.567 907.508 512 907.508 907.508 730.433 907.508 512 730.433 116.492 512 116.492z m0 760.117c-201.367 0-364.609-163.241-364.609-364.609S310.632 147.391 512 147.391 876.609 310.632 876.609 512 713.368 876.609 512 876.609z" fill="#707070" /><path d="M512 694.761c-103.67 0-187.713-84.041-187.713-187.713h-30.899c0 120.735 97.875 218.611 218.611 218.611S730.61 627.784 730.61 507.048h-30.899c0 103.67-84.041 187.713-187.713 187.713z" fill="#707070" /><path d="M293.389 507.049c0 8.533 6.916 15.449 15.449 15.449s15.449-6.916 15.449-15.449-6.916-15.449-15.449-15.449-15.449 6.916-15.449 15.449zM699.713 507.049c0 8.533 6.916 15.449 15.449 15.449s15.449-6.916 15.449-15.449-6.916-15.449-15.449-15.449-15.449 6.916-15.449 15.449zM324.287 381.838c0 19.199 15.563 34.762 34.762 34.762s34.762-15.563 34.762-34.762c0-19.199-15.563-34.762-34.762-34.762-19.199 0-34.762 15.563-34.762 34.762zM630.189 381.838c0 19.199 15.563 34.762 34.762 34.762s34.762-15.563 34.762-34.762c0-19.199-15.563-34.762-34.762-34.762-19.199 0-34.762 15.563-34.762 34.762z" fill="#707070" /></svg>