<?xml version="1.0" standalone="no"?><!DOCTYPE svg PUBLIC "-//W3C//DTD SVG 1.1//EN"
        "http://www.w3.org/Graphics/SVG/1.1/DTD/svg11.dtd">
<svg class="icon" width="32px" height="32.00px" viewBox="0 0 1024 1024" version="1.1"
     xmlns="http://www.w3.org/2000/svg">
    <path d="M895.443 664.08v233.174H136.157V664.08H42.66v279.246c0 36.181 29.115 65.567 65.08 65.567h808.328c36.073 0 65.27-29.384 65.27-65.567V664.08h-85.896z m-681.86-224.331H354.53v287.253c-1.59 11.35 0.352 26.097 9.974 38.766 11.86 15.638 31.056 23.566 57.043 23.566h190.741c24.373 0 38.904-9.787 46.829-18.01 13.913-14.478 15.179-31.382 15.099-37.609v-283.32h127.763c32.999 0 54.107-10.835 62.735-32.269 12.076-29.979-11.701-58.476-22.052-68.988-32.81-42.032-238.134-278.117-275.124-314-17.202-16.554-35.021-20.03-46.938-20.03-30.11 0-50.197 21.08-53.917 25.313L185.168 339.485c-15.366 14.424-37.366 41.464-26.258 70.123 5.336 13.749 19.141 30.14 54.672 30.14z"
          fill="#707070"/>
</svg>